<svg width="219" height="218" viewBox="0 0 219 218" fill="none" xmlns="http://www.w3.org/2000/svg">
<path d="M109.071 217.363C72.8547 192.35 36.5971 167.309 0 142.033C1.74976 140.727 3.15537 139.568 4.66786 138.57C15.9938 131.092 28.3553 126.5 41.8934 125.014C59.1776 123.114 74.8343 127.166 89.0418 137.185C101.294 145.822 113.658 154.303 125.991 162.823C129.406 165.183 132.893 167.436 136.558 169.88C138.785 168.347 140.991 166.829 143.691 164.97C96.0117 132.099 48.7687 99.5286 1.21648 66.746C40.4884 49.2086 77.5547 28.7679 109.875 1.37458e-05C145.693 24.7161 181.779 49.6141 218.188 74.7358C217.216 75.5829 216.483 76.3125 215.662 76.9209C203.835 85.6638 190.783 91.5824 176.081 93.1948C161.293 94.816 147.559 91.4926 135.266 83.0161C119.142 71.8969 103.128 60.621 87.0637 49.417C86.0867 48.7348 85.0789 48.098 83.9085 47.3229C81.6455 48.9186 79.4624 50.4593 76.7465 52.3734C124.058 85.3941 170.841 118.047 217.927 150.91C178.366 167.941 141.548 188.784 109.071 217.363Z" fill="#EB1D28"/>
</svg>
