<svg xmlns="http://www.w3.org/2000/svg" xmlns:xlink="http://www.w3.org/1999/xlink" width="1080" zoomAndPan="magnify" viewBox="0 0 810 809.999993" height="1080" preserveAspectRatio="xMidYMid meet" version="1.0"><defs><g/><clipPath id="4257a9774f"><path d="M 303.839844 290.082031 L 419.683594 290.082031 L 419.683594 405.925781 L 303.839844 405.925781 Z M 303.839844 290.082031 " clip-rule="nonzero"/></clipPath><clipPath id="4c7e1b5c5f"><path d="M 361.761719 290.082031 C 329.773438 290.082031 303.839844 316.015625 303.839844 348.003906 C 303.839844 379.996094 329.773438 405.925781 361.761719 405.925781 C 393.75 405.925781 419.683594 379.996094 419.683594 348.003906 C 419.683594 316.015625 393.75 290.082031 361.761719 290.082031 Z M 361.761719 290.082031 " clip-rule="nonzero"/></clipPath><clipPath id="e6bde6054a"><path d="M 298 227 L 362 227 L 362 332 L 298 332 Z M 298 227 " clip-rule="nonzero"/></clipPath><clipPath id="44e6d2c8d8"><path d="M 293.734375 235.21875 L 321.546875 222.835938 L 366.761719 324.410156 L 338.953125 336.789062 Z M 293.734375 235.21875 " clip-rule="nonzero"/></clipPath><clipPath id="9d397eba79"><path d="M 307.640625 229.027344 C 311.328125 227.386719 315.515625 227.277344 319.285156 228.722656 C 323.054688 230.167969 326.09375 233.054688 327.734375 236.742188 L 360.550781 310.453125 C 362.191406 314.140625 362.300781 318.328125 360.855469 322.097656 C 359.410156 325.867188 356.523438 328.90625 352.835938 330.546875 C 349.148438 332.191406 344.960938 332.300781 341.191406 330.851562 C 337.421875 329.40625 334.382812 326.519531 332.742188 322.832031 L 299.925781 249.121094 C 298.285156 245.433594 298.175781 241.246094 299.621094 237.476562 C 301.066406 233.707031 303.953125 230.667969 307.640625 229.027344 Z M 307.640625 229.027344 " clip-rule="nonzero"/></clipPath><clipPath id="1386e0e956"><path d="M 285 258 L 350 258 L 350 363 L 285 363 Z M 285 258 " clip-rule="nonzero"/></clipPath><clipPath id="bd18b0415e"><path d="M 280.984375 265.859375 L 308.796875 253.480469 L 354.011719 355.050781 L 326.203125 367.433594 Z M 280.984375 265.859375 " clip-rule="nonzero"/></clipPath><clipPath id="f4cb9b1a5b"><path d="M 294.890625 259.671875 C 298.578125 258.027344 302.765625 257.917969 306.535156 259.367188 C 310.304688 260.8125 313.34375 263.699219 314.984375 267.386719 L 347.800781 341.097656 C 349.441406 344.785156 349.550781 348.972656 348.105469 352.742188 C 346.65625 356.511719 343.773438 359.550781 340.085938 361.191406 C 336.398438 362.832031 332.207031 362.945312 328.441406 361.496094 C 324.671875 360.050781 321.632812 357.164062 319.988281 353.476562 L 287.175781 279.765625 C 285.535156 276.078125 285.425781 271.890625 286.871094 268.121094 C 288.316406 264.351562 291.203125 261.3125 294.890625 259.671875 Z M 294.890625 259.671875 " clip-rule="nonzero"/></clipPath><clipPath id="e738dbada1"><path d="M 330 233 L 394 233 L 394 338 L 330 338 Z M 330 233 " clip-rule="nonzero"/></clipPath><clipPath id="ae6cfd5799"><path d="M 325.261719 241.160156 L 353.070312 228.78125 L 398.289062 330.351562 L 370.476562 342.734375 Z M 325.261719 241.160156 " clip-rule="nonzero"/></clipPath><clipPath id="5ce616f0d4"><path d="M 339.164062 234.972656 C 342.851562 233.328125 347.042969 233.21875 350.808594 234.667969 C 354.578125 236.113281 357.617188 239 359.261719 242.6875 L 392.074219 316.398438 C 393.714844 320.085938 393.828125 324.273438 392.378906 328.042969 C 390.933594 331.8125 388.046875 334.851562 384.359375 336.492188 C 380.671875 338.132812 376.484375 338.242188 372.714844 336.796875 C 368.945312 335.351562 365.90625 332.464844 364.265625 328.777344 L 331.449219 255.066406 C 329.808594 251.378906 329.699219 247.191406 331.144531 243.421875 C 332.59375 239.652344 335.476562 236.613281 339.164062 234.972656 Z M 339.164062 234.972656 " clip-rule="nonzero"/></clipPath><clipPath id="e9caceb998"><path d="M 366 244 L 430 244 L 430 349 L 366 349 Z M 366 244 " clip-rule="nonzero"/></clipPath><clipPath id="517e9f11b6"><path d="M 361.761719 252.308594 L 389.574219 239.929688 L 434.789062 341.5 L 406.980469 353.882812 Z M 361.761719 252.308594 " clip-rule="nonzero"/></clipPath><clipPath id="c9ddfdb187"><path d="M 375.667969 246.117188 C 379.355469 244.476562 383.542969 244.367188 387.3125 245.816406 C 391.082031 247.261719 394.121094 250.144531 395.761719 253.832031 L 428.578125 327.546875 C 430.21875 331.234375 430.328125 335.421875 428.882812 339.191406 C 427.433594 342.960938 424.550781 346 420.863281 347.640625 C 417.175781 349.28125 412.984375 349.390625 409.21875 347.945312 C 405.449219 346.496094 402.410156 343.613281 400.765625 339.925781 L 367.953125 266.214844 C 366.3125 262.527344 366.203125 258.335938 367.648438 254.570312 C 369.09375 250.800781 371.980469 247.761719 375.667969 246.117188 Z M 375.667969 246.117188 " clip-rule="nonzero"/></clipPath><clipPath id="5bafda42f4"><path d="M 265 328 L 362 328 L 362 407 L 265 407 Z M 265 328 " clip-rule="nonzero"/></clipPath><clipPath id="1c35451e29"><path d="M 259.539062 347.179688 L 277.363281 322.507812 L 367.488281 387.613281 L 349.660156 412.289062 Z M 259.539062 347.179688 " clip-rule="nonzero"/></clipPath><clipPath id="e19154760f"><path d="M 268.449219 334.84375 C 270.816406 331.570312 274.382812 329.371094 278.367188 328.730469 C 282.351562 328.089844 286.429688 329.054688 289.703125 331.417969 L 355.105469 378.667969 C 358.378906 381.035156 360.578125 384.601562 361.21875 388.585938 C 361.859375 392.570312 360.894531 396.648438 358.53125 399.921875 C 356.164062 403.191406 352.597656 405.390625 348.613281 406.035156 C 344.628906 406.675781 340.550781 405.707031 337.277344 403.34375 L 271.875 356.09375 C 268.601562 353.730469 266.402344 350.164062 265.761719 346.179688 C 265.121094 342.191406 266.085938 338.117188 268.449219 334.84375 Z M 268.449219 334.84375 " clip-rule="nonzero"/></clipPath><clipPath id="d16e762473"><path d="M 450 207 L 507 207 L 507 315 L 450 315 Z M 450 207 " clip-rule="nonzero"/></clipPath><clipPath id="b04c47f0e2"><path d="M 481.523438 203.207031 L 510.4375 212.734375 L 475.644531 318.332031 L 446.734375 308.808594 Z M 481.523438 203.207031 " clip-rule="nonzero"/></clipPath><clipPath id="3e6a864282"><path d="M 495.980469 207.972656 C 499.8125 209.234375 502.988281 211.96875 504.804688 215.574219 C 506.625 219.179688 506.9375 223.355469 505.671875 227.191406 L 480.425781 303.824219 C 479.164062 307.660156 476.425781 310.832031 472.824219 312.652344 C 469.21875 314.46875 465.039062 314.78125 461.207031 313.519531 C 457.371094 312.253906 454.195312 309.519531 452.378906 305.914062 C 450.5625 302.3125 450.25 298.132812 451.511719 294.296875 L 476.761719 217.664062 C 478.023438 213.832031 480.757812 210.65625 484.363281 208.839844 C 487.964844 207.019531 492.144531 206.707031 495.980469 207.972656 Z M 495.980469 207.972656 " clip-rule="nonzero"/></clipPath><clipPath id="c4148b2d75"><path d="M 466 236 L 522 236 L 522 345 L 466 345 Z M 466 236 " clip-rule="nonzero"/></clipPath><clipPath id="ac6379942f"><path d="M 497.074219 232.933594 L 525.984375 242.460938 L 491.195312 348.058594 L 462.28125 338.53125 Z M 497.074219 232.933594 " clip-rule="nonzero"/></clipPath><clipPath id="b183a61d56"><path d="M 511.53125 237.695312 C 515.363281 238.960938 518.539062 241.695312 520.355469 245.296875 C 522.175781 248.902344 522.488281 253.082031 521.222656 256.914062 L 495.976562 333.550781 C 494.710938 337.382812 491.976562 340.558594 488.375 342.375 C 484.769531 344.195312 480.589844 344.507812 476.757812 343.242188 C 472.921875 341.980469 469.746094 339.246094 467.929688 335.640625 C 466.113281 332.035156 465.800781 327.859375 467.0625 324.023438 L 492.3125 247.390625 C 493.574219 243.554688 496.308594 240.382812 499.914062 238.5625 C 503.515625 236.746094 507.695312 236.433594 511.53125 237.695312 Z M 511.53125 237.695312 " clip-rule="nonzero"/></clipPath><clipPath id="65485a1d40"><path d="M 387 226 L 443 226 L 443 334 L 387 334 Z M 387 226 " clip-rule="nonzero"/></clipPath><clipPath id="6d3f1a1eeb"><path d="M 417.835938 222.835938 L 446.75 232.363281 L 411.960938 337.960938 L 383.046875 328.4375 Z M 417.835938 222.835938 " clip-rule="nonzero"/></clipPath><clipPath id="0cc088c6b0"><path d="M 432.292969 227.601562 C 436.128906 228.863281 439.304688 231.597656 441.121094 235.203125 C 442.9375 238.804688 443.25 242.984375 441.988281 246.820312 L 416.738281 323.453125 C 415.476562 327.285156 412.742188 330.460938 409.136719 332.28125 C 405.535156 334.097656 401.355469 334.410156 397.519531 333.144531 C 393.6875 331.882812 390.511719 329.148438 388.695312 325.542969 C 386.875 321.941406 386.5625 317.761719 387.828125 313.925781 L 413.074219 237.292969 C 414.335938 233.460938 417.074219 230.285156 420.675781 228.464844 C 424.28125 226.648438 428.460938 226.335938 432.292969 227.601562 Z M 432.292969 227.601562 " clip-rule="nonzero"/></clipPath><clipPath id="30e6abb0b4"><path d="M 418 211 L 475 211 L 475 319 L 418 319 Z M 418 211 " clip-rule="nonzero"/></clipPath><clipPath id="c5d3e70864"><path d="M 449.679688 207.433594 L 478.59375 216.960938 L 443.800781 322.558594 L 414.890625 313.035156 Z M 449.679688 207.433594 " clip-rule="nonzero"/></clipPath><clipPath id="202b8c6316"><path d="M 464.136719 212.199219 C 467.96875 213.460938 471.144531 216.195312 472.964844 219.800781 C 474.78125 223.402344 475.09375 227.582031 473.832031 231.417969 L 448.582031 308.050781 C 447.320312 311.882812 444.585938 315.058594 440.980469 316.878906 C 437.375 318.695312 433.199219 319.007812 429.363281 317.742188 C 425.53125 316.480469 422.355469 313.746094 420.535156 310.140625 C 418.71875 306.539062 418.40625 302.359375 419.671875 298.523438 L 444.917969 221.890625 C 446.179688 218.058594 448.914062 214.882812 452.519531 213.0625 C 456.125 211.246094 460.300781 210.933594 464.136719 212.199219 Z M 464.136719 212.199219 " clip-rule="nonzero"/></clipPath><clipPath id="1a9db53dd6"><path d="M 388.828125 269.785156 L 504.671875 269.785156 L 504.671875 385.628906 L 388.828125 385.628906 Z M 388.828125 269.785156 " clip-rule="nonzero"/></clipPath><clipPath id="7b2fb0d67d"><path d="M 446.75 269.785156 C 414.761719 269.785156 388.828125 295.71875 388.828125 327.707031 C 388.828125 359.695312 414.761719 385.628906 446.75 385.628906 C 478.738281 385.628906 504.671875 359.695312 504.671875 327.707031 C 504.671875 295.71875 478.738281 269.785156 446.75 269.785156 Z M 446.75 269.785156 " clip-rule="nonzero"/></clipPath><clipPath id="6233645c31"><path d="M 440 305 L 543 305 L 543 373 L 440 373 Z M 440 305 " clip-rule="nonzero"/></clipPath><clipPath id="9d08f5dc47"><path d="M 534.304688 300.644531 L 548.023438 327.8125 L 448.800781 377.925781 L 435.078125 350.761719 Z M 534.304688 300.644531 " clip-rule="nonzero"/></clipPath><clipPath id="92737ccb40"><path d="M 541.164062 314.230469 C 544.953125 321.730469 541.941406 330.882812 534.441406 334.671875 L 462.414062 371.050781 C 454.914062 374.839844 445.761719 371.828125 441.972656 364.328125 C 438.183594 356.824219 441.191406 347.671875 448.695312 343.882812 L 520.71875 307.507812 C 528.222656 303.71875 537.375 306.726562 541.164062 314.230469 Z M 541.164062 314.230469 " clip-rule="nonzero"/></clipPath><clipPath id="d0780964b2"><path d="M 466 316 L 525 316 L 525 371 L 466 371 Z M 466 316 " clip-rule="nonzero"/></clipPath><clipPath id="eed32e3cb0"><path d="M 511.359375 310.429688 L 530.828125 333.828125 L 479.558594 376.488281 L 460.089844 353.089844 Z M 511.359375 310.429688 " clip-rule="nonzero"/></clipPath><clipPath id="a29ace20b1"><path d="M 521.09375 322.128906 C 526.46875 328.589844 525.589844 338.183594 519.128906 343.5625 L 491.304688 366.714844 C 484.84375 372.089844 475.246094 371.210938 469.871094 364.75 C 464.496094 358.289062 465.375 348.695312 471.835938 343.316406 L 499.664062 320.164062 C 506.121094 314.789062 515.71875 315.667969 521.09375 322.128906 Z M 521.09375 322.128906 " clip-rule="nonzero"/></clipPath></defs><g fill="#000000" fill-opacity="1"><g transform="translate(48.075427, 606.178822)"><g><path d="M 81.859375 -65.984375 C 81.859375 -65.578125 81.707031 -65.21875 81.40625 -64.90625 L 63.390625 -49.484375 C 62.878906 -49.179688 62.421875 -49.082031 62.015625 -49.1875 C 61.503906 -49.28125 61.195312 -49.582031 61.09375 -50.09375 C 59.96875 -52.945312 58.644531 -55.59375 57.125 -58.03125 C 56.40625 -59.15625 55.507812 -60.378906 54.4375 -61.703125 C 53.375 -63.023438 52.179688 -64.195312 50.859375 -65.21875 C 49.535156 -66.238281 48.109375 -67.023438 46.578125 -67.578125 C 45.054688 -68.140625 43.53125 -68.21875 42 -67.8125 C 39.96875 -67.300781 38.3125 -66.101562 37.03125 -64.21875 C 35.757812 -62.34375 34.820312 -60.488281 34.21875 -58.65625 C 33.300781 -55.695312 32.765625 -52.613281 32.609375 -49.40625 C 32.453125 -46.195312 32.628906 -43.117188 33.140625 -40.171875 C 33.753906 -36.503906 34.75 -33.015625 36.125 -29.703125 C 37.5 -26.398438 39.304688 -23.445312 41.546875 -20.84375 C 43.785156 -18.25 46.429688 -16.109375 49.484375 -14.421875 C 52.535156 -12.742188 56 -11.601562 59.875 -11 C 61.5 -10.6875 63.28125 -10.53125 65.21875 -10.53125 C 68.164062 -10.53125 71.09375 -10.882812 74 -11.59375 C 76.90625 -12.3125 79.679688 -13.382812 82.328125 -14.8125 C 83.035156 -15.21875 83.644531 -15.066406 84.15625 -14.359375 C 84.664062 -13.640625 84.664062 -12.976562 84.15625 -12.375 C 79.78125 -7.175781 74.457031 -3.53125 68.1875 -1.4375 C 61.925781 0.644531 55.488281 1.6875 48.875 1.6875 C 42.757812 1.6875 37.03125 0.796875 31.6875 -0.984375 C 26.34375 -2.773438 21.660156 -5.375 17.640625 -8.78125 C 13.617188 -12.195312 10.460938 -16.394531 8.171875 -21.375 C 5.878906 -26.363281 4.734375 -32.066406 4.734375 -38.484375 C 4.734375 -44.898438 5.90625 -50.578125 8.25 -55.515625 C 10.59375 -60.453125 13.75 -64.625 17.71875 -68.03125 C 21.6875 -71.445312 26.34375 -74.019531 31.6875 -75.75 C 37.03125 -77.488281 42.757812 -78.359375 48.875 -78.359375 C 54.882812 -78.359375 60.789062 -77.515625 66.59375 -75.828125 C 72.394531 -74.148438 77.484375 -71.171875 81.859375 -66.890625 C 82.171875 -66.585938 82.328125 -66.179688 82.328125 -65.671875 Z M 81.859375 -65.984375 "/></g></g></g><g fill="#000000" fill-opacity="1"><g transform="translate(127.339299, 606.178822)"><g><path d="M 39.5625 -12.984375 L 43.828125 -2.296875 C 44.035156 -1.785156 43.988281 -1.328125 43.6875 -0.921875 C 43.375 -0.410156 42.960938 -0.15625 42.453125 -0.15625 L 7.640625 -0.15625 C 7.128906 -0.15625 6.722656 -0.410156 6.421875 -0.921875 C 6.109375 -1.328125 6.054688 -1.785156 6.265625 -2.296875 L 10.53125 -12.984375 L 10.53125 -87.0625 L 5.34375 -95.609375 C 5.039062 -96.015625 4.988281 -96.472656 5.1875 -96.984375 C 5.289062 -97.390625 5.597656 -97.695312 6.109375 -97.90625 L 11.453125 -99.578125 L 37.421875 -106.609375 C 37.828125 -106.710938 38.285156 -106.609375 38.796875 -106.296875 C 39.203125 -105.992188 39.40625 -105.585938 39.40625 -105.078125 Z M 39.5625 -12.984375 "/></g></g></g><g fill="#000000" fill-opacity="1"><g transform="translate(165.672612, 606.178822)"><g><path d="M 39.859375 -23.0625 C 39.859375 -22.144531 39.984375 -21.070312 40.234375 -19.84375 C 40.492188 -18.625 41.082031 -17.765625 42 -17.265625 C 42.613281 -16.953125 43.378906 -16.820312 44.296875 -16.875 C 45.210938 -16.925781 46.128906 -17.101562 47.046875 -17.40625 C 47.960938 -17.71875 48.851562 -18.101562 49.71875 -18.5625 C 50.582031 -19.019531 51.316406 -19.398438 51.921875 -19.703125 C 53.148438 -20.410156 54.398438 -21.171875 55.671875 -21.984375 C 56.941406 -22.804688 58.140625 -23.675781 59.265625 -24.59375 L 59.265625 -56.359375 L 54.0625 -64.90625 C 53.757812 -65.3125 53.710938 -65.769531 53.921875 -66.28125 C 54.015625 -66.6875 54.316406 -66.992188 54.828125 -67.203125 L 60.171875 -68.890625 L 86.140625 -75.90625 C 86.546875 -76.007812 87.003906 -75.910156 87.515625 -75.609375 C 87.921875 -75.296875 88.125 -74.882812 88.125 -74.375 L 88.125 -12.375 L 92.40625 -1.6875 C 92.601562 -1.175781 92.550781 -0.71875 92.25 -0.3125 C 91.945312 0.195312 91.539062 0.453125 91.03125 0.453125 L 60.328125 0.453125 C 59.210938 0.453125 58.65625 -0.101562 58.65625 -1.21875 L 58.65625 -9.3125 C 56.914062 -7.882812 55.128906 -6.535156 53.296875 -5.265625 C 51.472656 -3.992188 49.539062 -2.800781 47.5 -1.6875 C 45.15625 -0.351562 42.6875 0.5625 40.09375 1.0625 C 37.5 1.570312 34.878906 1.828125 32.234375 1.828125 C 25.503906 1.828125 20.203125 -0.128906 16.328125 -4.046875 C 12.460938 -7.960938 10.53125 -13.332031 10.53125 -20.15625 L 10.53125 -56.8125 L 5.34375 -65.375 C 5.039062 -65.78125 4.988281 -66.238281 5.1875 -66.75 C 5.289062 -67.15625 5.597656 -67.457031 6.109375 -67.65625 L 11.453125 -69.34375 L 37.421875 -76.359375 C 37.828125 -76.460938 38.285156 -76.363281 38.796875 -76.0625 C 39.203125 -75.757812 39.40625 -75.351562 39.40625 -74.84375 L 39.40625 -27.1875 Z M 39.859375 -23.0625 "/></g></g></g><g fill="#000000" fill-opacity="1"><g transform="translate(252.725516, 606.178822)"><g><path d="M 10.6875 -87.515625 L 5.5 -96.0625 C 5.195312 -96.476562 5.144531 -96.9375 5.34375 -97.4375 C 5.445312 -97.851562 5.753906 -98.160156 6.265625 -98.359375 L 11.609375 -100.046875 L 37.578125 -107.0625 C 37.984375 -107.164062 38.441406 -107.066406 38.953125 -106.765625 C 39.359375 -106.453125 39.5625 -106.046875 39.5625 -105.546875 L 39.5625 -69.953125 C 42.613281 -72.804688 46 -74.921875 49.71875 -76.296875 C 53.4375 -77.671875 57.429688 -78.457031 61.703125 -78.65625 C 65.160156 -78.757812 68.675781 -78.453125 72.25 -77.734375 C 76.320312 -76.722656 80.085938 -75.117188 83.546875 -72.921875 C 87.003906 -70.734375 90.054688 -68.015625 92.703125 -64.765625 C 95.660156 -61.191406 97.828125 -57.242188 99.203125 -52.921875 C 100.578125 -48.597656 101.265625 -44.09375 101.265625 -39.40625 C 101.265625 -34.925781 100.523438 -30.570312 99.046875 -26.34375 C 97.566406 -22.125 95.53125 -18.253906 92.9375 -14.734375 C 90.34375 -11.222656 87.238281 -8.171875 83.625 -5.578125 C 80.007812 -2.984375 76.0625 -1.070312 71.78125 0.15625 C 68.519531 1.070312 65.210938 1.53125 61.859375 1.53125 C 58.191406 1.425781 54.320312 0.660156 50.25 -0.765625 C 46.175781 -2.191406 42.5625 -4.078125 39.40625 -6.421875 L 39.40625 -1.6875 C 39.40625 -0.5625 38.84375 0 37.71875 0 L 7.328125 0 C 6.816406 0 6.410156 -0.253906 6.109375 -0.765625 C 5.804688 -1.171875 5.753906 -1.628906 5.953125 -2.140625 L 10.234375 -12.828125 Z M 70.71875 -23.515625 C 71.53125 -26.265625 71.882812 -29.113281 71.78125 -32.0625 C 71.675781 -35.019531 71.320312 -37.875 70.71875 -40.625 C 70.101562 -43.269531 69.207031 -45.941406 68.03125 -48.640625 C 66.863281 -51.335938 65.316406 -53.707031 63.390625 -55.75 C 62.066406 -57.175781 60.507812 -58.421875 58.71875 -59.484375 C 56.9375 -60.554688 55.03125 -61.09375 53 -61.09375 C 52.488281 -61.09375 51.722656 -60.988281 50.703125 -60.78125 C 48.773438 -60.28125 47.144531 -59.46875 45.8125 -58.34375 C 44.1875 -56.914062 42.96875 -55.207031 42.15625 -53.21875 C 41.34375 -51.238281 40.804688 -49.101562 40.546875 -46.8125 C 40.296875 -44.519531 40.269531 -42.226562 40.46875 -39.9375 C 40.675781 -37.644531 40.984375 -35.582031 41.390625 -33.75 C 41.796875 -31.914062 42.40625 -29.90625 43.21875 -27.71875 C 44.039062 -25.53125 45.0625 -23.46875 46.28125 -21.53125 C 47.5 -19.601562 48.894531 -17.898438 50.46875 -16.421875 C 52.050781 -14.941406 53.863281 -13.894531 55.90625 -13.28125 C 57.738281 -12.78125 59.570312 -12.78125 61.40625 -13.28125 C 61.90625 -13.382812 62.664062 -13.640625 63.6875 -14.046875 C 65.519531 -14.960938 66.992188 -16.285156 68.109375 -18.015625 C 69.234375 -19.753906 70.050781 -21.585938 70.5625 -23.515625 Z M 70.71875 -23.515625 "/></g></g></g><g fill="#000000" fill-opacity="1"><g transform="translate(348.483787, 606.178822)"><g><path d="M 39.859375 -69.03125 C 42.816406 -62.3125 45.742188 -55.566406 48.640625 -48.796875 C 51.546875 -42.023438 54.523438 -35.28125 57.578125 -28.5625 L 64.453125 -75 C 64.660156 -75.90625 65.171875 -76.359375 65.984375 -76.359375 L 91.328125 -76.359375 C 91.941406 -76.359375 92.398438 -76.109375 92.703125 -75.609375 C 93.015625 -75.203125 93.066406 -74.742188 92.859375 -74.234375 L 60.78125 -0.921875 C 60.476562 -0.304688 59.972656 0 59.265625 0 L 40.171875 0 C 39.554688 0 39.097656 -0.304688 38.796875 -0.921875 L 4.890625 -74.234375 C 4.679688 -74.742188 4.734375 -75.203125 5.046875 -75.609375 C 5.347656 -76.109375 5.804688 -76.359375 6.421875 -76.359375 L 38.34375 -76.359375 C 39.050781 -76.359375 39.554688 -76.054688 39.859375 -75.453125 C 40.367188 -74.328125 40.421875 -73.253906 40.015625 -72.234375 C 39.609375 -71.222656 39.660156 -70.15625 40.171875 -69.03125 Z M 39.859375 -69.03125 "/></g></g></g><g fill="#000000" fill-opacity="1"><g transform="translate(435.994867, 606.178822)"><g><path d="M 36.96875 -28.40625 L 36.96875 -27.953125 C 38.59375 -22.960938 41.644531 -19.015625 46.125 -16.109375 C 50.601562 -13.210938 55.335938 -11.40625 60.328125 -10.6875 C 61.960938 -10.382812 63.742188 -10.234375 65.671875 -10.234375 C 68.628906 -10.234375 71.554688 -10.585938 74.453125 -11.296875 C 77.359375 -12.015625 80.132812 -13.085938 82.78125 -14.515625 C 83.488281 -14.921875 84.097656 -14.765625 84.609375 -14.046875 C 85.117188 -13.335938 85.117188 -12.675781 84.609375 -12.0625 C 80.234375 -6.875 74.914062 -3.234375 68.65625 -1.140625 C 62.394531 0.941406 55.953125 1.984375 49.328125 1.984375 C 43.222656 1.984375 37.492188 1.09375 32.140625 -0.6875 C 26.796875 -2.46875 22.113281 -5.0625 18.09375 -8.46875 C 14.070312 -11.882812 10.914062 -16.085938 8.625 -21.078125 C 6.332031 -26.066406 5.1875 -31.769531 5.1875 -38.1875 C 5.1875 -44.601562 6.332031 -50.28125 8.625 -55.21875 C 10.914062 -60.15625 14.046875 -64.328125 18.015625 -67.734375 C 21.992188 -71.148438 26.628906 -73.722656 31.921875 -75.453125 C 37.210938 -77.179688 42.914062 -78.046875 49.03125 -78.046875 C 60.4375 -78.046875 69.21875 -75.347656 75.375 -69.953125 C 81.53125 -64.554688 84.96875 -56.15625 85.6875 -44.75 C 85.6875 -43.9375 85.328125 -43.425781 84.609375 -43.21875 L 79.265625 -41.546875 L 62.3125 -36.203125 L 36.5 -28.109375 Z M 58.65625 -47.5 C 58.75 -49.84375 58.492188 -52.335938 57.890625 -54.984375 C 57.378906 -56.710938 56.691406 -58.441406 55.828125 -60.171875 C 54.960938 -61.910156 53.890625 -63.414062 52.609375 -64.6875 C 51.335938 -65.957031 49.863281 -66.921875 48.1875 -67.578125 C 46.507812 -68.242188 44.648438 -68.320312 42.609375 -67.8125 L 41.703125 -67.359375 C 39.660156 -66.546875 38.078125 -65.144531 36.953125 -63.15625 C 35.835938 -61.164062 35.023438 -59.207031 34.515625 -57.28125 C 33.703125 -54.425781 33.269531 -51.46875 33.21875 -48.40625 C 33.164062 -45.351562 33.394531 -42.351562 33.90625 -39.40625 Z M 58.65625 -47.5 "/></g></g></g><g fill="#000000" fill-opacity="1"><g transform="translate(516.022383, 606.178822)"><g><path d="M 10.234375 -12.984375 L 10.234375 -56.8125 L 5.046875 -65.375 C 4.734375 -65.78125 4.679688 -66.238281 4.890625 -66.75 C 4.992188 -67.15625 5.296875 -67.457031 5.796875 -67.65625 L 11.15625 -69.34375 L 37.109375 -76.359375 C 37.515625 -76.460938 37.972656 -76.363281 38.484375 -76.0625 C 38.890625 -75.757812 39.09375 -75.351562 39.09375 -74.84375 L 39.09375 -69.34375 C 40.832031 -70.96875 42.769531 -72.390625 44.90625 -73.609375 C 47.039062 -74.835938 49.128906 -75.859375 51.171875 -76.671875 C 53.503906 -77.484375 55.894531 -78.015625 58.34375 -78.265625 C 60.789062 -78.523438 63.179688 -78.300781 65.515625 -77.59375 C 66.234375 -77.382812 66.59375 -76.875 66.59375 -76.0625 L 66.59375 -53 C 66.59375 -52.28125 66.285156 -51.769531 65.671875 -51.46875 C 65.066406 -51.164062 64.507812 -51.269531 64 -51.78125 C 62.0625 -53.8125 59.769531 -55.234375 57.125 -56.046875 C 54.476562 -56.867188 51.78125 -57.023438 49.03125 -56.515625 C 47.195312 -56.203125 45.257812 -55.460938 43.21875 -54.296875 C 41.1875 -53.128906 39.914062 -51.523438 39.40625 -49.484375 C 39.300781 -49.179688 39.25 -48.722656 39.25 -48.109375 L 39.25 -12.828125 L 43.53125 -2.140625 C 43.726562 -1.628906 43.675781 -1.171875 43.375 -0.765625 C 43.070312 -0.253906 42.664062 0 42.15625 0 L 7.328125 0 C 6.816406 0 6.410156 -0.253906 6.109375 -0.765625 C 5.804688 -1.171875 5.753906 -1.628906 5.953125 -2.140625 Z M 10.234375 -12.984375 "/></g></g></g><g fill="#000000" fill-opacity="1"><g transform="translate(577.417325, 606.178822)"><g><path d="M 66.4375 -86.75 L 61.25 -95.3125 C 60.9375 -95.71875 60.882812 -96.175781 61.09375 -96.6875 C 61.195312 -97.09375 61.503906 -97.394531 62.015625 -97.59375 L 67.359375 -99.28125 L 93.328125 -106.296875 C 93.734375 -106.398438 94.1875 -106.300781 94.6875 -106 C 95.101562 -105.695312 95.3125 -105.289062 95.3125 -104.78125 L 95.3125 -12.53125 L 99.578125 -1.828125 C 99.785156 -1.316406 99.738281 -0.859375 99.4375 -0.453125 C 99.125 0.0546875 98.710938 0.3125 98.203125 0.3125 L 67.8125 0.3125 C 66.695312 0.3125 66.140625 -0.25 66.140625 -1.375 L 66.140625 -7.484375 C 64.097656 -5.546875 61.90625 -3.863281 59.5625 -2.4375 C 57.21875 -1.019531 54.671875 0.046875 51.921875 0.765625 C 46.222656 2.285156 40.421875 2.234375 34.515625 0.609375 C 30.242188 -0.609375 26.300781 -2.515625 22.6875 -5.109375 C 19.070312 -7.710938 15.960938 -10.769531 13.359375 -14.28125 C 10.765625 -17.789062 8.726562 -21.660156 7.25 -25.890625 C 5.78125 -30.117188 5.046875 -34.472656 5.046875 -38.953125 C 5.046875 -43.628906 5.726562 -48.128906 7.09375 -52.453125 C 8.46875 -56.785156 10.632812 -60.734375 13.59375 -64.296875 C 18.988281 -70.921875 25.8125 -75.25 34.0625 -77.28125 C 37.519531 -78 41.03125 -78.304688 44.59375 -78.203125 C 48.769531 -77.992188 52.640625 -77.253906 56.203125 -75.984375 C 59.765625 -74.710938 63.078125 -72.753906 66.140625 -70.109375 Z M 64.609375 -26.734375 C 65.421875 -29.578125 65.800781 -32.523438 65.75 -35.578125 C 65.695312 -38.640625 65.316406 -41.597656 64.609375 -44.453125 C 63.796875 -47.609375 62.648438 -50.710938 61.171875 -53.765625 C 59.691406 -56.816406 57.679688 -59.363281 55.140625 -61.40625 C 53.410156 -62.820312 51.5 -63.859375 49.40625 -64.515625 C 47.320312 -65.179688 45.210938 -65.210938 43.078125 -64.609375 C 41.140625 -64.097656 39.53125 -63.101562 38.25 -61.625 C 36.976562 -60.144531 35.988281 -58.492188 35.28125 -56.671875 C 34.15625 -53.710938 33.695312 -50.5 33.90625 -47.03125 C 34.113281 -43.570312 34.570312 -40.316406 35.28125 -37.265625 C 35.988281 -34.410156 36.953125 -31.609375 38.171875 -28.859375 C 39.398438 -26.117188 41.035156 -23.675781 43.078125 -21.53125 C 44.492188 -20.007812 46.117188 -18.660156 47.953125 -17.484375 C 49.785156 -16.316406 51.773438 -15.785156 53.921875 -15.890625 C 54.328125 -15.890625 54.9375 -15.988281 55.75 -16.1875 C 56.5625 -16.394531 57.171875 -16.597656 57.578125 -16.796875 C 59.617188 -17.609375 61.222656 -18.929688 62.390625 -20.765625 C 63.554688 -22.597656 64.445312 -24.535156 65.0625 -26.578125 Z M 64.609375 -26.734375 "/></g></g></g><g fill="#000000" fill-opacity="1"><g transform="translate(671.495583, 606.178822)"><g><path d="M 36.96875 -28.40625 L 36.96875 -27.953125 C 38.59375 -22.960938 41.644531 -19.015625 46.125 -16.109375 C 50.601562 -13.210938 55.335938 -11.40625 60.328125 -10.6875 C 61.960938 -10.382812 63.742188 -10.234375 65.671875 -10.234375 C 68.628906 -10.234375 71.554688 -10.585938 74.453125 -11.296875 C 77.359375 -12.015625 80.132812 -13.085938 82.78125 -14.515625 C 83.488281 -14.921875 84.097656 -14.765625 84.609375 -14.046875 C 85.117188 -13.335938 85.117188 -12.675781 84.609375 -12.0625 C 80.234375 -6.875 74.914062 -3.234375 68.65625 -1.140625 C 62.394531 0.941406 55.953125 1.984375 49.328125 1.984375 C 43.222656 1.984375 37.492188 1.09375 32.140625 -0.6875 C 26.796875 -2.46875 22.113281 -5.0625 18.09375 -8.46875 C 14.070312 -11.882812 10.914062 -16.085938 8.625 -21.078125 C 6.332031 -26.066406 5.1875 -31.769531 5.1875 -38.1875 C 5.1875 -44.601562 6.332031 -50.28125 8.625 -55.21875 C 10.914062 -60.15625 14.046875 -64.328125 18.015625 -67.734375 C 21.992188 -71.148438 26.628906 -73.722656 31.921875 -75.453125 C 37.210938 -77.179688 42.914062 -78.046875 49.03125 -78.046875 C 60.4375 -78.046875 69.21875 -75.347656 75.375 -69.953125 C 81.53125 -64.554688 84.96875 -56.15625 85.6875 -44.75 C 85.6875 -43.9375 85.328125 -43.425781 84.609375 -43.21875 L 79.265625 -41.546875 L 62.3125 -36.203125 L 36.5 -28.109375 Z M 58.65625 -47.5 C 58.75 -49.84375 58.492188 -52.335938 57.890625 -54.984375 C 57.378906 -56.710938 56.691406 -58.441406 55.828125 -60.171875 C 54.960938 -61.910156 53.890625 -63.414062 52.609375 -64.6875 C 51.335938 -65.957031 49.863281 -66.921875 48.1875 -67.578125 C 46.507812 -68.242188 44.648438 -68.320312 42.609375 -67.8125 L 41.703125 -67.359375 C 39.660156 -66.546875 38.078125 -65.144531 36.953125 -63.15625 C 35.835938 -61.164062 35.023438 -59.207031 34.515625 -57.28125 C 33.703125 -54.425781 33.269531 -51.46875 33.21875 -48.40625 C 33.164062 -45.351562 33.394531 -42.351562 33.90625 -39.40625 Z M 58.65625 -47.5 "/></g></g></g><g clip-path="url(#4257a9774f)"><g clip-path="url(#4c7e1b5c5f)"><path fill="#25d366" d="M 303.839844 290.082031 L 419.683594 290.082031 L 419.683594 405.925781 L 303.839844 405.925781 Z M 303.839844 290.082031 " fill-opacity="1" fill-rule="nonzero"/></g></g><g clip-path="url(#e6bde6054a)"><g clip-path="url(#44e6d2c8d8)"><g clip-path="url(#9d397eba79)"><path fill="#25d366" d="M 293.734375 235.21875 L 321.546875 222.835938 L 366.761719 324.410156 L 338.953125 336.789062 Z M 293.734375 235.21875 " fill-opacity="1" fill-rule="nonzero"/></g></g></g><g clip-path="url(#1386e0e956)"><g clip-path="url(#bd18b0415e)"><g clip-path="url(#f4cb9b1a5b)"><path fill="#25d366" d="M 280.984375 265.859375 L 308.796875 253.480469 L 354.011719 355.050781 L 326.203125 367.433594 Z M 280.984375 265.859375 " fill-opacity="1" fill-rule="nonzero"/></g></g></g><g clip-path="url(#e738dbada1)"><g clip-path="url(#ae6cfd5799)"><g clip-path="url(#5ce616f0d4)"><path fill="#25d366" d="M 325.261719 241.160156 L 353.070312 228.78125 L 398.289062 330.351562 L 370.476562 342.734375 Z M 325.261719 241.160156 " fill-opacity="1" fill-rule="nonzero"/></g></g></g><g clip-path="url(#e9caceb998)"><g clip-path="url(#517e9f11b6)"><g clip-path="url(#c9ddfdb187)"><path fill="#25d366" d="M 361.761719 252.308594 L 389.574219 239.929688 L 434.789062 341.5 L 406.980469 353.882812 Z M 361.761719 252.308594 " fill-opacity="1" fill-rule="nonzero"/></g></g></g><g clip-path="url(#5bafda42f4)"><g clip-path="url(#1c35451e29)"><g clip-path="url(#e19154760f)"><path fill="#25d366" d="M 259.539062 347.179688 L 277.363281 322.507812 L 367.488281 387.613281 L 349.660156 412.289062 Z M 259.539062 347.179688 " fill-opacity="1" fill-rule="nonzero"/></g></g></g><g clip-path="url(#d16e762473)"><g clip-path="url(#b04c47f0e2)"><g clip-path="url(#3e6a864282)"><path fill="#25d366" d="M 481.523438 203.207031 L 510.4375 212.734375 L 475.644531 318.332031 L 446.734375 308.808594 Z M 481.523438 203.207031 " fill-opacity="1" fill-rule="nonzero"/></g></g></g><g clip-path="url(#c4148b2d75)"><g clip-path="url(#ac6379942f)"><g clip-path="url(#b183a61d56)"><path fill="#25d366" d="M 497.074219 232.933594 L 525.984375 242.460938 L 491.195312 348.058594 L 462.28125 338.53125 Z M 497.074219 232.933594 " fill-opacity="1" fill-rule="nonzero"/></g></g></g><g clip-path="url(#65485a1d40)"><g clip-path="url(#6d3f1a1eeb)"><g clip-path="url(#0cc088c6b0)"><path fill="#25d366" d="M 417.835938 222.835938 L 446.75 232.363281 L 411.960938 337.960938 L 383.046875 328.4375 Z M 417.835938 222.835938 " fill-opacity="1" fill-rule="nonzero"/></g></g></g><g clip-path="url(#30e6abb0b4)"><g clip-path="url(#c5d3e70864)"><g clip-path="url(#202b8c6316)"><path fill="#25d366" d="M 449.679688 207.433594 L 478.59375 216.960938 L 443.800781 322.558594 L 414.890625 313.035156 Z M 449.679688 207.433594 " fill-opacity="1" fill-rule="nonzero"/></g></g></g><g clip-path="url(#1a9db53dd6)"><g clip-path="url(#7b2fb0d67d)"><path fill="#25d366" d="M 388.828125 269.785156 L 504.671875 269.785156 L 504.671875 385.628906 L 388.828125 385.628906 Z M 388.828125 269.785156 " fill-opacity="1" fill-rule="nonzero"/></g></g><g clip-path="url(#6233645c31)"><g clip-path="url(#9d08f5dc47)"><g clip-path="url(#92737ccb40)"><path fill="#25d366" d="M 534.304688 300.644531 L 548.023438 327.8125 L 448.800781 377.925781 L 435.078125 350.761719 Z M 534.304688 300.644531 " fill-opacity="1" fill-rule="nonzero"/></g></g></g><g clip-path="url(#d0780964b2)"><g clip-path="url(#eed32e3cb0)"><g clip-path="url(#a29ace20b1)"><path fill="#25d366" d="M 511.359375 310.429688 L 530.828125 333.828125 L 479.648438 376.410156 L 460.183594 353.015625 Z M 511.359375 310.429688 " fill-opacity="1" fill-rule="nonzero"/></g></g></g><path fill="#000000" d="M 544.738281 310.507812 C 539.175781 303.3125 529.359375 301.679688 518.890625 305.929688 C 516.273438 306.910156 512.347656 308.542969 507.765625 310.507812 L 526.742188 258.523438 C 528.378906 253.945312 528.050781 249.042969 526.085938 244.792969 C 524.125 240.542969 520.527344 237.273438 515.945312 235.640625 C 512.671875 234.332031 509.074219 234.332031 505.800781 235.3125 L 508.09375 228.773438 C 509.730469 224.195312 509.402344 219.292969 507.4375 215.042969 C 505.476562 210.792969 501.875 207.523438 497.296875 205.886719 C 488.132812 202.617188 477.992188 207.523438 474.71875 216.351562 C 472.757812 213.734375 469.8125 211.445312 466.539062 210.136719 C 457.378906 206.867188 447.238281 211.773438 443.636719 220.925781 L 440.367188 230.082031 C 438.402344 227.464844 435.457031 225.175781 432.1875 224.195312 C 423.023438 220.925781 412.882812 225.832031 409.285156 235.3125 L 398.8125 264.734375 L 393.90625 252.3125 C 392.269531 247.734375 388.671875 244.140625 384.417969 242.175781 C 380.164062 240.214844 375.582031 240.214844 371.332031 241.851562 C 368.058594 243.160156 365.441406 245.445312 363.476562 248.0625 L 359.878906 239.234375 C 358.242188 234.65625 354.644531 231.0625 350.390625 229.101562 C 346.136719 227.136719 341.554688 227.136719 337.304688 228.773438 C 334.03125 230.082031 331.414062 232.371094 329.449219 234.984375 C 327.488281 230.734375 324.214844 227.464844 319.960938 225.503906 C 315.707031 223.542969 311.128906 223.542969 306.875 225.175781 C 298.039062 228.773438 293.460938 239.234375 297.058594 248.390625 L 299.675781 254.929688 C 296.40625 254.273438 293.132812 254.273438 289.863281 255.582031 C 281.027344 259.179688 276.445312 269.640625 280.046875 278.792969 L 303.277344 337.640625 L 289.207031 329.140625 C 285.28125 326.527344 280.699219 325.21875 276.445312 325.871094 C 271.867188 326.527344 267.613281 329.140625 264.996094 333.066406 C 259.433594 340.910156 261.394531 352.027344 268.921875 357.910156 C 271.867188 360.855469 309.820312 390.933594 323.5625 400.738281 C 333.703125 407.933594 346.136719 411.855469 358.570312 411.855469 C 366.75 411.855469 375.257812 410.222656 383.4375 406.953125 C 396.195312 401.71875 406.992188 392.894531 414.191406 381.125 C 418.117188 383.738281 422.371094 385.699219 426.953125 387.335938 C 434.476562 389.949219 442.328125 391.257812 450.179688 391.257812 C 463.921875 391.257812 477.011719 387.007812 488.132812 378.835938 C 501.875 368.699219 539.503906 337.316406 541.792969 335.351562 C 549.316406 329.46875 550.625 318.027344 544.738281 310.507812 Z M 380.164062 399.433594 C 362.167969 406.625 342.863281 404.664062 327.816406 394.199219 C 314.398438 384.394531 275.136719 353.007812 274.8125 352.679688 C 270.558594 349.410156 269.574219 343.199219 272.519531 338.621094 C 273.828125 336.660156 276.121094 335.027344 278.738281 334.699219 C 281.355469 334.371094 283.644531 335.027344 285.609375 336.335938 C 285.609375 336.335938 285.933594 336.335938 285.933594 336.660156 L 310.472656 351.371094 C 311.78125 352.355469 313.746094 352.027344 315.054688 351.046875 C 316.363281 350.066406 316.691406 348.105469 316.035156 346.46875 L 288.226562 276.503906 C 286.261719 271.273438 288.550781 265.714844 293.460938 263.753906 C 295.421875 263.101562 297.714844 263.101562 300.003906 264.082031 C 302.292969 265.0625 304.257812 267.023438 305.566406 269.3125 L 320.289062 307.238281 C 320.945312 308.871094 322.578125 309.851562 323.886719 309.851562 C 324.214844 309.851562 324.871094 309.851562 325.195312 309.527344 C 327.160156 308.871094 328.140625 306.257812 327.488281 304.292969 L 313.089844 267.679688 C 313.089844 267.679688 313.089844 267.351562 313.089844 267.351562 C 313.089844 267.023438 312.765625 266.699219 312.765625 266.371094 L 304.910156 246.101562 C 302.949219 240.871094 305.238281 235.3125 310.148438 233.351562 C 312.4375 232.371094 315.054688 232.371094 317.34375 233.351562 C 319.636719 234.332031 321.597656 236.292969 322.578125 238.90625 L 327.816406 252.640625 L 344.828125 296.773438 C 345.484375 298.410156 347.117188 299.390625 348.425781 299.390625 C 348.753906 299.390625 349.410156 299.390625 349.734375 299.0625 C 351.699219 298.410156 352.679688 295.792969 352.027344 293.832031 L 335.667969 251.003906 L 335.339844 250.023438 C 333.375 244.792969 335.667969 239.234375 340.574219 237.273438 C 342.863281 236.292969 345.484375 236.292969 347.773438 237.273438 C 350.0625 238.253906 352.027344 240.214844 353.007812 242.832031 L 361.84375 265.0625 C 361.84375 265.390625 361.84375 265.390625 362.167969 265.714844 L 373.949219 296.773438 C 374.601562 298.738281 377.21875 299.71875 379.183594 299.0625 C 381.144531 298.410156 382.128906 295.792969 381.472656 293.832031 L 369.367188 262.773438 C 367.402344 257.542969 369.695312 251.984375 374.601562 250.023438 C 376.890625 249.042969 379.507812 249.042969 381.800781 250.023438 C 384.089844 251.003906 386.054688 252.964844 387.035156 255.582031 L 413.210938 323.582031 C 424.007812 354.316406 409.609375 387.664062 380.164062 399.433594 Z M 536.558594 329.140625 C 536.230469 329.46875 496.640625 362.160156 483.226562 372.296875 C 468.503906 383.414062 448.21875 386.027344 429.894531 379.488281 C 425.96875 378.179688 422.042969 376.21875 418.445312 373.929688 C 418.773438 373.277344 419.097656 372.625 419.425781 371.644531 C 426.296875 355.621094 426.953125 337.640625 421.0625 320.96875 L 403.722656 276.503906 L 417.136719 238.253906 C 419.097656 233.023438 424.660156 230.40625 429.570312 232.042969 C 431.859375 233.023438 433.820312 234.65625 435.132812 236.945312 C 436.113281 239.234375 436.441406 242.175781 435.457031 244.464844 L 423.679688 277.8125 C 423.023438 279.773438 424.007812 282.0625 425.96875 283.042969 C 426.296875 283.042969 426.953125 283.371094 427.277344 283.371094 C 428.914062 283.371094 430.550781 282.390625 431.203125 280.753906 L 442.984375 247.410156 C 442.984375 247.082031 442.984375 247.082031 443.308594 246.753906 L 451.488281 224.195312 C 453.453125 218.964844 459.015625 216.351562 463.921875 217.984375 C 466.214844 218.964844 468.175781 220.601562 469.484375 222.886719 C 470.464844 225.175781 470.792969 228.121094 469.8125 230.734375 L 469.484375 231.714844 L 453.125 279.121094 C 452.472656 281.082031 453.453125 283.371094 455.742188 284.351562 C 456.070312 284.351562 456.726562 284.679688 457.050781 284.679688 C 458.6875 284.679688 460.324219 283.699219 460.976562 282.0625 L 477.992188 233.675781 L 482.898438 219.945312 C 484.863281 214.714844 490.425781 212.097656 495.332031 213.734375 C 497.621094 214.714844 499.585938 216.351562 500.894531 218.636719 C 501.875 220.925781 502.203125 223.871094 501.222656 226.15625 L 494.023438 245.773438 C 493.695312 246.425781 493.695312 246.753906 493.371094 247.410156 C 493.371094 247.734375 493.371094 248.0625 493.042969 248.0625 L 478.320312 288.601562 C 477.664062 290.5625 478.644531 292.851562 480.609375 293.832031 C 480.9375 293.832031 481.589844 294.160156 481.917969 294.160156 C 483.554688 294.160156 485.191406 293.179688 485.84375 291.542969 L 501.222656 249.042969 C 503.511719 244.464844 509.074219 241.851562 513.328125 243.484375 C 515.617188 244.464844 517.582031 246.101562 518.890625 248.390625 C 519.871094 250.675781 520.199219 253.621094 519.21875 255.910156 L 497.621094 314.429688 C 494.023438 315.738281 490.753906 317.042969 489.117188 317.699219 C 468.503906 309.851562 457.378906 319.007812 448.21875 326.199219 C 446.582031 327.507812 446.253906 330.121094 447.5625 331.757812 C 448.871094 333.390625 451.488281 333.71875 453.125 332.410156 C 461.960938 325.21875 470.140625 318.351562 487.480469 325.546875 C 488.460938 325.871094 489.441406 325.871094 490.425781 325.546875 C 491.40625 325.21875 513.980469 316.390625 521.835938 313.121094 C 526.085938 311.488281 533.941406 309.199219 538.195312 315.082031 C 541.792969 319.660156 540.8125 325.871094 536.558594 329.140625 Z M 536.558594 329.140625 " fill-opacity="1" fill-rule="nonzero"/><path fill="#000000" d="M 313.417969 197.714844 L 333.703125 210.792969 C 334.359375 211.117188 335.011719 211.445312 335.996094 211.445312 C 337.304688 211.445312 338.613281 210.792969 339.265625 209.484375 C 340.574219 207.523438 339.921875 205.234375 337.957031 203.925781 L 317.671875 190.847656 C 315.707031 189.542969 313.417969 190.195312 312.109375 192.15625 C 310.800781 194.117188 311.457031 196.40625 313.417969 197.714844 Z M 313.417969 197.714844 " fill-opacity="1" fill-rule="nonzero"/><path fill="#000000" d="M 361.1875 194.445312 C 361.839844 196.078125 363.152344 197.0625 365.113281 197.0625 C 365.441406 197.0625 366.09375 197.0625 366.421875 196.734375 C 368.386719 196.078125 369.695312 193.792969 369.039062 191.503906 L 357.914062 159.136719 C 357.261719 157.175781 354.972656 155.867188 352.679688 156.519531 C 350.71875 157.175781 349.410156 159.464844 350.0625 161.753906 Z M 361.1875 194.445312 " fill-opacity="1" fill-rule="nonzero"/><path fill="#000000" d="M 396.523438 191.503906 C 396.851562 191.828125 397.503906 191.828125 397.832031 191.828125 C 399.46875 191.828125 401.105469 190.847656 401.429688 189.214844 L 409.609375 166.65625 C 410.265625 164.695312 409.285156 162.40625 407.320312 161.425781 C 405.355469 160.769531 403.066406 161.753906 402.085938 163.714844 L 393.90625 186.273438 C 393.25 188.558594 394.558594 190.847656 396.523438 191.503906 Z M 396.523438 191.503906 " fill-opacity="1" fill-rule="nonzero"/><path fill="#000000" d="M 425.316406 417.085938 C 423.351562 416.433594 421.0625 417.738281 420.40625 419.703125 L 413.535156 442.585938 C 412.882812 444.546875 414.191406 446.835938 416.152344 447.492188 C 416.480469 447.492188 416.808594 447.816406 417.464844 447.816406 C 419.097656 447.816406 420.734375 446.835938 421.390625 444.875 L 428.261719 421.992188 C 428.585938 420.027344 427.605469 417.738281 425.316406 417.085938 Z M 425.316406 417.085938 " fill-opacity="1" fill-rule="nonzero"/><path fill="#000000" d="M 459.34375 411.203125 C 458.359375 409.238281 456.070312 408.257812 454.109375 408.914062 C 452.144531 409.894531 451.164062 412.183594 451.816406 414.144531 L 464.90625 445.855469 C 465.558594 447.492188 467.195312 448.472656 468.503906 448.472656 C 469.15625 448.472656 469.484375 448.472656 470.140625 448.144531 C 472.101562 447.164062 473.085938 444.875 472.429688 442.914062 Z M 459.34375 411.203125 " fill-opacity="1" fill-rule="nonzero"/><path fill="#000000" d="M 507.109375 403.355469 L 486.171875 391.585938 C 484.207031 390.605469 481.917969 391.257812 480.609375 393.21875 C 479.628906 395.183594 480.28125 397.46875 482.246094 398.777344 L 503.183594 410.546875 C 503.839844 410.875 504.492188 411.203125 505.148438 411.203125 C 506.457031 411.203125 507.765625 410.546875 508.746094 409.238281 C 509.730469 406.953125 509.074219 404.664062 507.109375 403.355469 Z M 507.109375 403.355469 " fill-opacity="1" fill-rule="nonzero"/></svg>